<?xml version="1.0" standalone="no"?>
<!DOCTYPE svg PUBLIC "-//W3C//DTD SVG 20010904//EN"
 "http://www.w3.org/TR/2001/REC-SVG-20010904/DTD/svg10.dtd">
<svg version="1.0" xmlns="http://www.w3.org/2000/svg"
 width="700.000000pt" height="394.000000pt" viewBox="0 0 700.000000 394.000000"
 preserveAspectRatio="xMidYMid meet">

<g transform="translate(0.000000,394.000000) scale(0.100000,-0.100000)"
fill="#000000" stroke="none">
<path d="M1731 3664 c-46 -51 -817 -835 -1458 -1484 l-193 -196 853 -867 852
-866 3 863 c1 476 1 1257 0 1737 l-3 872 -54 -59z"/>
<path d="M1855 3658 c65 -68 601 -613 1463 -1488 l182 -185 147 150 c80 83
347 353 592 600 245 248 565 570 711 718 l264 267 -1709 0 -1709 0 59 -62z"/>
<path d="M5220 1983 l0 -1732 848 860 c466 473 847 866 847 874 0 11 -677 703
-1447 1480 l-248 250 0 -1732z"/>
<path d="M3390 1873 c-57 -60 -376 -385 -709 -723 -333 -338 -668 -679 -745
-758 l-140 -142 1709 0 c939 0 1706 2 1704 4 -54 57 -1712 1726 -1715 1726 -1
0 -48 -48 -104 -107z"/>
</g>
</svg>
