<svg id="svg" version="1.1" xmlns="http://www.w3.org/2000/svg" xmlns:xlink="http://www.w3.org/1999/xlink" width="400" height="225.14285714285714" viewBox="0, 0, 400,225.14285714285714"><g id="svgg"><path id="path0" d="M102.477 111.860 L 102.477 210.460 110.529 202.276 C 114.958 197.774,120.431 192.223,122.691 189.940 C 124.952 187.657,126.802 185.690,126.802 185.569 C 126.802 185.448,127.055 185.253,127.365 185.135 C 127.675 185.017,127.928 184.764,127.928 184.573 C 127.928 184.381,128.179 184.110,128.487 183.970 C 128.794 183.830,129.100 183.553,129.167 183.355 C 129.234 183.157,131.922 180.365,135.140 177.151 C 138.358 173.936,140.991 171.242,140.991 171.164 C 140.991 171.086,141.244 170.886,141.554 170.721 C 141.864 170.555,142.117 170.346,142.117 170.255 C 142.117 170.165,146.653 165.510,152.196 159.911 C 157.739 154.311,162.934 149.047,163.739 148.212 C 165.539 146.346,186.389 125.175,193.872 117.614 C 196.881 114.574,199.313 111.964,199.277 111.813 C 199.241 111.663,196.399 108.671,192.962 105.164 C 189.524 101.657,186.712 98.781,186.712 98.772 C 186.712 98.747,168.835 80.706,162.253 74.088 C 158.982 70.800,156.306 68.012,156.305 67.895 C 156.304 67.777,155.998 67.507,155.625 67.294 C 155.252 67.082,154.884 66.743,154.806 66.540 C 154.728 66.338,152.221 63.711,149.235 60.703 C 134.880 46.243,121.622 32.681,121.622 32.456 C 121.622 32.319,121.489 32.207,121.326 32.207 C 121.050 32.207,119.820 31.082,119.820 30.829 C 119.820 30.767,115.918 26.788,111.149 21.987 L 102.477 13.259 102.477 111.860 M284.407 26.865 C 277.282 34.077,267.137 44.322,261.862 49.632 C 256.588 54.942,252.243 59.369,252.206 59.469 C 252.170 59.569,244.057 67.780,234.178 77.716 C 224.299 87.651,216.216 95.868,216.216 95.976 C 216.216 96.083,216.136 96.171,216.038 96.171 C 215.940 96.171,214.800 97.241,213.505 98.548 C 212.209 99.855,208.792 103.293,205.912 106.187 C 203.032 109.081,200.676 111.617,200.676 111.822 C 200.676 112.028,204.552 116.108,209.291 120.889 C 214.029 125.671,222.770 134.503,228.716 140.517 C 247.950 159.968,255.343 167.435,264.835 176.992 C 281.045 193.314,294.431 206.879,295.946 208.518 C 296.751 209.389,297.486 210.109,297.579 210.118 C 297.816 210.142,297.792 14.018,297.555 13.871 C 297.449 13.806,291.532 19.653,284.407 26.865 " stroke="none" fill="#fcfbfb" fill-rule="evenodd"></path><path id="path1" d="M102.027 12.050 C 102.027 12.235,101.918 12.387,101.786 12.387 C 101.474 12.387,100.901 12.960,100.901 13.272 C 100.901 13.405,100.792 13.514,100.660 13.514 C 100.348 13.514,99.775 14.087,99.775 14.398 C 99.775 14.531,99.666 14.640,99.533 14.640 C 99.222 14.640,98.649 15.213,98.649 15.524 C 98.649 15.657,98.540 15.766,98.407 15.766 C 98.096 15.766,97.523 16.339,97.523 16.651 C 97.523 16.783,97.414 16.892,97.281 16.892 C 96.969 16.892,96.396 17.465,96.396 17.777 C 96.396 17.909,96.244 18.018,96.059 18.018 C 95.873 18.018,95.721 18.170,95.721 18.356 C 95.721 18.542,95.612 18.694,95.479 18.694 C 95.168 18.694,94.595 19.267,94.595 19.579 C 94.595 19.711,94.486 19.820,94.353 19.820 C 94.041 19.820,93.468 20.393,93.468 20.705 C 93.468 20.837,93.360 20.946,93.227 20.946 C 92.915 20.946,92.342 21.519,92.342 21.831 C 92.342 21.963,92.234 22.072,92.101 22.072 C 91.789 22.072,91.216 22.645,91.216 22.957 C 91.216 23.090,91.108 23.198,90.975 23.198 C 90.663 23.198,90.090 23.771,90.090 24.083 C 90.090 24.216,89.981 24.324,89.849 24.324 C 89.537 24.324,88.964 24.897,88.964 25.209 C 88.964 25.342,88.866 25.450,88.747 25.450 C 88.452 25.450,87.162 26.728,87.162 27.019 C 87.162 27.147,87.054 27.252,86.921 27.252 C 86.609 27.252,86.036 27.825,86.036 28.137 C 86.036 28.270,85.927 28.378,85.795 28.378 C 85.483 28.378,84.910 28.951,84.910 29.263 C 84.910 29.396,84.801 29.505,84.669 29.505 C 84.357 29.505,83.784 30.077,83.784 30.389 C 83.784 30.522,83.675 30.631,83.542 30.631 C 83.231 30.631,82.658 31.204,82.658 31.515 C 82.658 31.648,82.549 31.757,82.416 31.757 C 82.105 31.757,81.532 32.330,81.532 32.642 C 81.532 32.774,81.380 32.883,81.194 32.883 C 81.008 32.883,80.856 33.018,80.856 33.183 C 80.856 33.348,80.602 33.618,80.293 33.784 C 79.983 33.950,79.730 34.220,79.730 34.385 C 79.730 34.550,79.621 34.685,79.488 34.685 C 79.356 34.685,79.102 34.829,78.925 35.006 C 78.748 35.183,78.604 35.437,78.604 35.569 C 78.604 35.702,78.495 35.811,78.362 35.811 C 78.050 35.811,77.477 36.384,77.477 36.696 C 77.477 36.828,77.369 36.937,77.236 36.937 C 77.103 36.937,76.850 37.082,76.673 37.259 C 76.496 37.436,76.351 37.689,76.351 37.822 C 76.351 37.954,76.243 38.063,76.110 38.063 C 75.798 38.063,75.225 38.636,75.225 38.948 C 75.225 39.081,75.090 39.189,74.925 39.189 C 74.761 39.189,74.490 39.443,74.324 39.752 C 74.159 40.062,73.888 40.315,73.723 40.315 C 73.558 40.315,73.423 40.424,73.423 40.557 C 73.423 40.689,73.279 40.943,73.102 41.120 C 72.925 41.297,72.671 41.441,72.539 41.441 C 72.406 41.441,72.297 41.576,72.297 41.741 C 72.297 41.906,72.044 42.177,71.734 42.342 C 71.425 42.508,71.171 42.779,71.171 42.943 C 71.171 43.108,71.019 43.243,70.833 43.243 C 70.623 43.243,70.495 43.456,70.495 43.806 C 70.495 44.257,70.383 44.369,69.932 44.369 C 69.482 44.369,69.369 44.482,69.369 44.932 C 69.369 45.352,69.250 45.495,68.903 45.495 C 68.646 45.495,68.292 45.640,68.115 45.817 C 67.938 45.994,67.793 46.349,67.793 46.606 C 67.793 46.953,67.649 47.072,67.230 47.072 C 66.812 47.072,66.667 47.191,66.667 47.533 C 66.667 47.787,66.413 48.229,66.104 48.516 C 65.794 48.803,65.541 49.153,65.541 49.294 C 65.541 49.434,65.389 49.550,65.203 49.550 C 65.017 49.550,64.865 49.651,64.865 49.775 C 64.865 49.899,64.713 50.000,64.527 50.000 C 64.341 50.000,64.189 50.109,64.189 50.241 C 64.189 50.553,63.616 51.126,63.304 51.126 C 63.172 51.126,63.063 51.235,63.063 51.367 C 63.063 51.679,62.490 52.252,62.178 52.252 C 62.046 52.252,61.937 52.361,61.937 52.494 C 61.937 52.805,61.364 53.378,61.052 53.378 C 60.919 53.378,60.811 53.487,60.811 53.620 C 60.811 53.932,60.238 54.505,59.926 54.505 C 59.793 54.505,59.685 54.613,59.685 54.745 C 59.685 54.877,59.330 55.320,58.896 55.729 C 58.463 56.138,58.108 56.587,58.108 56.727 C 58.108 56.867,57.993 56.982,57.853 56.982 C 57.713 56.982,57.264 57.337,56.855 57.770 C 56.446 58.204,56.003 58.559,55.871 58.559 C 55.739 58.559,55.631 58.667,55.631 58.800 C 55.631 59.112,55.058 59.685,54.746 59.685 C 54.613 59.685,54.505 59.793,54.505 59.926 C 54.505 60.238,53.932 60.811,53.620 60.811 C 53.487 60.811,53.378 60.919,53.378 61.052 C 53.378 61.364,52.805 61.937,52.494 61.937 C 52.361 61.937,52.252 62.045,52.252 62.177 C 52.252 62.309,51.898 62.752,51.464 63.161 C 51.030 63.570,50.676 64.019,50.676 64.159 C 50.676 64.300,50.561 64.414,50.421 64.414 C 50.281 64.414,49.831 64.769,49.422 65.203 C 49.013 65.636,48.571 65.991,48.439 65.991 C 48.306 65.991,48.198 66.100,48.198 66.232 C 48.198 66.544,47.625 67.117,47.313 67.117 C 47.181 67.117,47.072 67.219,47.072 67.343 C 47.072 67.468,46.211 68.422,45.158 69.463 C 44.105 70.504,43.243 71.466,43.243 71.601 C 43.243 71.736,43.135 71.847,43.002 71.847 C 42.690 71.847,42.117 72.420,42.117 72.732 C 42.117 72.864,42.008 72.973,41.874 72.973 C 41.570 72.973,35.811 78.749,35.811 79.055 C 35.811 79.178,35.702 79.279,35.569 79.279 C 35.177 79.279,34.685 79.888,34.685 80.374 C 34.685 80.700,34.511 80.846,34.065 80.897 C 33.628 80.948,33.425 81.113,33.376 81.461 C 33.332 81.768,33.120 81.981,32.813 82.024 C 32.506 82.068,32.293 82.280,32.250 82.588 C 32.206 82.895,31.994 83.107,31.687 83.151 C 31.375 83.195,31.167 83.407,31.122 83.727 C 31.082 84.006,30.955 84.234,30.840 84.234 C 30.725 84.234,30.631 84.386,30.631 84.572 C 30.631 84.758,30.522 84.910,30.389 84.910 C 30.077 84.910,29.505 85.483,29.505 85.795 C 29.505 85.927,29.352 86.036,29.167 86.036 C 28.981 86.036,28.829 86.145,28.829 86.277 C 28.829 86.589,28.256 87.162,27.944 87.162 C 27.811 87.162,27.703 87.271,27.703 87.403 C 27.703 87.715,27.130 88.288,26.818 88.288 C 26.685 88.288,26.577 88.440,26.577 88.626 C 26.577 88.812,26.468 88.964,26.335 88.964 C 26.023 88.964,25.450 89.537,25.450 89.849 C 25.450 89.981,25.342 90.090,25.209 90.090 C 24.897 90.090,24.324 90.663,24.324 90.975 C 24.324 91.108,24.216 91.216,24.083 91.216 C 23.771 91.216,23.198 91.789,23.198 92.101 C 23.198 92.234,23.090 92.342,22.957 92.342 C 22.645 92.342,22.072 92.915,22.072 93.227 C 22.072 93.360,21.920 93.468,21.734 93.468 C 21.548 93.468,21.396 93.577,21.396 93.710 C 21.396 94.022,20.823 94.595,20.512 94.595 C 20.379 94.595,20.270 94.703,20.270 94.836 C 20.270 94.969,20.125 95.222,19.949 95.399 C 19.772 95.576,19.518 95.721,19.385 95.721 C 19.253 95.721,19.144 95.856,19.144 96.021 C 19.144 96.185,18.891 96.456,18.581 96.622 C 18.271 96.787,18.018 97.058,18.018 97.223 C 18.018 97.388,17.909 97.523,17.777 97.523 C 17.465 97.523,16.892 98.096,16.892 98.407 C 16.892 98.540,16.783 98.649,16.651 98.649 C 16.339 98.649,15.766 99.222,15.766 99.533 C 15.766 99.666,15.657 99.775,15.524 99.775 C 15.213 99.775,14.640 100.348,14.640 100.660 C 14.640 100.792,14.488 100.901,14.302 100.901 C 14.116 100.901,13.964 101.009,13.964 101.142 C 13.964 101.454,13.391 102.027,13.079 102.027 C 12.946 102.027,12.838 102.136,12.838 102.268 C 12.838 102.580,12.265 103.153,11.953 103.153 C 11.820 103.153,11.712 103.262,11.712 103.394 C 11.712 103.706,11.139 104.279,10.827 104.279 C 10.694 104.279,10.586 104.431,10.586 104.617 C 10.586 104.803,10.477 104.955,10.344 104.955 C 10.032 104.955,9.459 105.528,9.459 105.840 C 9.459 105.972,9.351 106.081,9.218 106.081 C 8.906 106.081,8.333 106.654,8.333 106.966 C 8.333 107.099,8.198 107.207,8.034 107.207 C 7.869 107.207,7.598 107.461,7.432 107.770 C 7.267 108.080,6.996 108.333,6.831 108.333 C 6.666 108.333,6.532 108.442,6.532 108.575 C 6.532 108.886,5.959 109.459,5.647 109.459 C 5.514 109.459,5.405 109.568,5.405 109.701 C 5.405 110.013,4.832 110.586,4.521 110.586 C 4.381 110.586,4.279 111.061,4.279 111.712 C 4.279 112.563,4.362 112.838,4.617 112.838 C 4.803 112.838,4.955 112.946,4.955 113.079 C 4.955 113.391,5.528 113.964,5.840 113.964 C 5.972 113.964,6.081 114.073,6.081 114.205 C 6.081 114.517,6.654 115.090,6.966 115.090 C 7.099 115.090,7.207 115.199,7.207 115.331 C 7.207 115.643,7.780 116.216,8.092 116.216 C 8.225 116.216,8.333 116.324,8.333 116.455 C 8.333 116.767,11.837 120.270,12.149 120.270 C 12.280 120.270,12.387 120.379,12.387 120.512 C 12.387 120.823,12.960 121.396,13.272 121.396 C 13.405 121.396,13.514 121.505,13.514 121.638 C 13.514 121.950,14.087 122.523,14.398 122.523 C 14.531 122.523,14.640 122.631,14.640 122.764 C 14.640 123.076,15.213 123.649,15.524 123.649 C 15.657 123.649,15.766 123.756,15.766 123.888 C 15.766 124.199,19.269 127.703,19.581 127.703 C 19.712 127.703,19.820 127.811,19.820 127.944 C 19.820 128.256,20.393 128.829,20.705 128.829 C 20.837 128.829,20.946 128.937,20.946 129.070 C 20.946 129.382,21.519 129.955,21.831 129.955 C 21.963 129.955,22.072 130.208,22.072 130.518 C 22.072 130.828,22.173 131.081,22.297 131.081 C 22.421 131.081,22.523 131.233,22.523 131.419 C 22.523 131.629,22.735 131.757,23.086 131.757 C 23.536 131.757,23.649 131.869,23.649 132.320 C 23.649 132.651,23.778 132.883,23.962 132.883 C 24.135 132.883,24.334 133.035,24.406 133.221 C 24.477 133.407,24.741 133.559,24.993 133.559 C 25.331 133.559,25.450 133.706,25.450 134.122 C 25.450 134.572,25.563 134.685,26.014 134.685 C 26.464 134.685,26.577 134.797,26.577 135.248 C 26.577 135.557,26.685 135.811,26.818 135.811 C 27.130 135.811,27.703 136.384,27.703 136.696 C 27.703 136.828,27.811 136.937,27.944 136.937 C 28.256 136.937,28.829 137.510,28.829 137.822 C 28.829 137.954,28.937 138.063,29.070 138.063 C 29.382 138.063,29.955 138.636,29.955 138.948 C 29.955 139.081,30.090 139.189,30.255 139.189 C 30.420 139.189,30.690 139.443,30.856 139.752 C 31.022 140.062,31.292 140.315,31.457 140.315 C 31.622 140.315,31.757 140.424,31.757 140.557 C 31.757 140.868,32.330 141.441,32.642 141.441 C 32.774 141.441,32.883 141.550,32.883 141.683 C 32.883 141.995,33.456 142.568,33.768 142.568 C 33.900 142.568,34.009 142.720,34.009 142.905 C 34.009 143.091,34.118 143.243,34.250 143.243 C 34.562 143.243,35.135 143.816,35.135 144.128 C 35.135 144.261,35.244 144.369,35.376 144.369 C 35.688 144.369,36.261 144.942,36.261 145.254 C 36.261 145.387,36.370 145.495,36.503 145.495 C 36.814 145.495,37.387 146.068,37.387 146.380 C 37.387 146.513,37.522 146.622,37.687 146.622 C 37.852 146.622,38.123 146.875,38.288 147.185 C 38.454 147.494,38.725 147.748,38.889 147.748 C 39.054 147.748,39.189 147.856,39.189 147.989 C 39.189 148.301,39.762 148.874,40.074 148.874 C 40.207 148.874,40.315 148.982,40.315 149.115 C 40.315 149.427,40.888 150.000,41.200 150.000 C 41.333 150.000,41.441 150.135,41.441 150.300 C 41.441 150.465,41.695 150.735,42.005 150.901 C 42.314 151.067,42.568 151.337,42.568 151.502 C 42.568 151.667,42.676 151.802,42.809 151.802 C 43.121 151.802,43.694 152.375,43.694 152.687 C 43.694 152.819,43.802 152.928,43.935 152.928 C 44.247 152.928,44.820 153.501,44.820 153.813 C 44.820 153.945,44.972 154.054,45.158 154.054 C 45.343 154.054,45.495 154.163,45.495 154.295 C 45.495 154.607,46.068 155.180,46.380 155.180 C 46.513 155.180,46.622 155.289,46.622 155.421 C 46.622 155.733,47.195 156.306,47.506 156.306 C 47.639 156.306,47.748 156.415,47.748 156.548 C 47.748 156.859,48.321 157.432,48.633 157.432 C 48.765 157.432,48.874 157.541,48.874 157.674 C 48.874 157.986,49.447 158.559,49.759 158.559 C 49.891 158.559,50.000 158.711,50.000 158.896 C 50.000 159.082,50.109 159.234,50.241 159.234 C 50.553 159.234,51.126 159.807,51.126 160.119 C 51.126 160.252,51.235 160.360,51.367 160.360 C 51.679 160.360,52.252 160.933,52.252 161.245 C 52.252 161.378,52.404 161.486,52.590 161.486 C 52.776 161.486,52.928 161.595,52.928 161.728 C 52.928 162.040,53.501 162.613,53.813 162.613 C 53.945 162.613,54.054 162.721,54.054 162.854 C 54.054 163.166,54.627 163.739,54.939 163.739 C 55.072 163.739,55.180 163.847,55.180 163.980 C 55.180 164.292,55.753 164.865,56.065 164.865 C 56.198 164.865,56.306 164.973,56.306 165.106 C 56.306 165.418,56.879 165.991,57.191 165.991 C 57.324 165.991,57.432 166.143,57.432 166.329 C 57.432 166.515,57.541 166.667,57.674 166.667 C 58.071 166.667,58.559 167.278,58.559 167.777 C 58.559 168.124,58.702 168.243,59.122 168.243 C 59.543 168.243,59.685 168.362,59.685 168.716 C 59.685 169.271,61.053 170.721,61.577 170.721 C 61.775 170.721,61.937 170.822,61.937 170.946 C 61.937 171.070,62.089 171.171,62.275 171.171 C 62.466 171.171,62.613 171.373,62.613 171.636 C 62.613 172.099,64.890 174.550,65.320 174.550 C 65.441 174.550,65.541 174.658,65.541 174.791 C 65.541 175.103,66.114 175.676,66.425 175.676 C 66.558 175.676,66.667 175.783,66.667 175.914 C 66.667 176.224,72.424 181.982,72.735 181.982 C 72.866 181.982,72.973 182.091,72.973 182.223 C 72.973 182.535,73.546 183.108,73.858 183.108 C 73.991 183.108,74.099 183.220,74.099 183.357 C 74.099 183.494,74.707 184.200,75.450 184.928 C 76.194 185.655,76.802 186.354,76.802 186.481 C 76.802 186.608,76.910 186.712,77.043 186.712 C 77.355 186.712,77.928 187.285,77.928 187.597 C 77.928 187.729,78.037 187.838,78.169 187.838 C 78.481 187.838,79.054 188.411,79.054 188.723 C 79.054 188.855,79.162 188.964,79.294 188.964 C 79.427 188.964,79.869 189.319,80.278 189.752 C 80.687 190.186,81.136 190.541,81.277 190.541 C 81.417 190.541,81.532 190.693,81.532 190.878 C 81.532 191.064,81.633 191.216,81.757 191.216 C 81.881 191.216,81.982 191.368,81.982 191.554 C 81.982 191.740,82.091 191.892,82.223 191.892 C 82.535 191.892,83.108 192.465,83.108 192.777 C 83.108 192.909,83.217 193.018,83.349 193.018 C 83.661 193.018,84.234 193.591,84.234 193.903 C 84.234 194.036,84.343 194.144,84.476 194.144 C 84.787 194.144,85.360 194.717,85.360 195.029 C 85.360 195.162,85.469 195.270,85.602 195.270 C 85.913 195.270,86.486 195.843,86.486 196.155 C 86.486 196.288,86.595 196.396,86.727 196.396 C 86.859 196.396,87.302 196.751,87.711 197.185 C 88.120 197.618,88.569 197.973,88.709 197.973 C 88.849 197.973,88.964 198.125,88.964 198.311 C 88.964 198.497,89.065 198.649,89.189 198.649 C 89.313 198.649,89.414 198.801,89.414 198.986 C 89.414 199.172,89.523 199.324,89.656 199.324 C 89.968 199.324,90.541 199.897,90.541 200.209 C 90.541 200.342,90.649 200.450,90.782 200.450 C 91.094 200.450,91.667 201.023,91.667 201.335 C 91.667 201.468,91.775 201.577,91.908 201.577 C 92.220 201.577,92.793 202.150,92.793 202.461 C 92.793 202.594,92.901 202.703,93.034 202.703 C 93.432 202.703,93.919 203.314,93.919 203.813 C 93.919 204.077,94.065 204.279,94.257 204.279 C 94.443 204.279,94.595 204.431,94.595 204.617 C 94.595 204.827,94.807 204.955,95.158 204.955 C 95.608 204.955,95.721 205.068,95.721 205.518 C 95.721 205.837,95.851 206.081,96.021 206.081 C 96.185 206.081,96.456 206.334,96.622 206.644 C 96.787 206.954,97.047 207.207,97.199 207.207 C 97.350 207.207,97.533 207.359,97.604 207.545 C 97.675 207.731,97.939 207.883,98.191 207.883 C 98.504 207.883,98.649 208.031,98.649 208.349 C 98.649 208.848,99.136 209.459,99.533 209.459 C 99.666 209.459,99.775 209.568,99.775 209.701 C 99.775 210.013,100.348 210.586,100.660 210.586 C 100.792 210.586,100.901 210.694,100.901 210.827 C 100.901 211.753,96.304 211.712,200.000 211.712 C 303.696 211.712,299.099 211.753,299.099 210.827 C 299.099 210.694,299.208 210.586,299.340 210.586 C 299.652 210.586,300.225 210.013,300.225 209.701 C 300.225 209.568,300.334 209.459,300.467 209.459 C 300.778 209.459,301.351 208.886,301.351 208.575 C 301.351 208.442,301.460 208.333,301.593 208.333 C 301.904 208.333,302.477 207.760,302.477 207.449 C 302.477 207.316,302.586 207.207,302.719 207.207 C 303.031 207.207,303.604 206.634,303.604 206.322 C 303.604 206.190,303.756 206.081,303.941 206.081 C 304.127 206.081,304.279 205.929,304.279 205.743 C 304.279 205.557,304.388 205.405,304.521 205.405 C 304.832 205.405,305.405 204.832,305.405 204.521 C 305.405 204.388,305.514 204.279,305.647 204.279 C 305.959 204.279,306.532 203.706,306.532 203.394 C 306.532 203.262,306.640 203.153,306.773 203.153 C 307.085 203.153,307.658 202.580,307.658 202.268 C 307.658 202.136,307.766 202.027,307.899 202.027 C 308.211 202.027,308.784 201.454,308.784 201.142 C 308.784 201.009,308.892 200.901,309.025 200.901 C 309.337 200.901,309.910 200.328,309.910 200.016 C 309.910 199.883,310.019 199.775,310.151 199.775 C 310.463 199.775,311.036 199.202,311.036 198.890 C 311.036 198.757,311.188 198.649,311.374 198.649 C 311.560 198.649,311.712 198.497,311.712 198.311 C 311.712 198.125,311.820 197.973,311.953 197.973 C 312.265 197.973,312.838 197.400,312.838 197.088 C 312.838 196.955,312.946 196.847,313.079 196.847 C 313.391 196.847,313.964 196.274,313.964 195.962 C 313.964 195.829,314.073 195.721,314.205 195.721 C 314.517 195.721,315.090 195.148,315.090 194.836 C 315.090 194.703,315.199 194.595,315.331 194.595 C 315.643 194.595,316.216 194.022,316.216 193.710 C 316.216 193.577,316.325 193.468,316.458 193.468 C 316.769 193.468,317.342 192.895,317.342 192.584 C 317.342 192.451,317.451 192.342,317.584 192.342 C 317.895 192.342,318.468 191.769,318.468 191.458 C 318.468 191.325,318.620 191.216,318.806 191.216 C 318.992 191.216,319.144 191.081,319.144 190.916 C 319.144 190.752,319.398 190.481,319.707 190.315 C 320.017 190.150,320.270 189.879,320.270 189.714 C 320.270 189.549,320.379 189.414,320.512 189.414 C 320.823 189.414,321.396 188.841,321.396 188.530 C 321.396 188.397,321.505 188.288,321.638 188.288 C 321.950 188.288,322.523 187.715,322.523 187.403 C 322.523 187.271,322.631 187.162,322.764 187.162 C 323.076 187.162,323.649 186.589,323.649 186.277 C 323.649 186.145,323.784 186.036,323.948 186.036 C 324.113 186.036,324.384 185.783,324.550 185.473 C 324.715 185.163,324.969 184.910,325.113 184.910 C 325.257 184.910,325.510 184.657,325.676 184.347 C 325.841 184.037,326.112 183.784,326.277 183.784 C 326.442 183.784,326.577 183.649,326.577 183.484 C 326.577 183.319,326.830 183.049,327.140 182.883 C 327.449 182.717,327.703 182.457,327.703 182.306 C 327.703 182.154,327.855 181.972,328.041 181.901 C 328.226 181.829,328.378 181.608,328.378 181.410 C 328.378 181.000,328.902 180.405,329.263 180.405 C 329.396 180.405,329.505 180.297,329.505 180.164 C 329.505 179.852,330.077 179.279,330.389 179.279 C 330.522 179.279,330.631 179.171,330.631 179.038 C 330.631 178.726,331.204 178.153,331.515 178.153 C 331.648 178.153,331.757 178.045,331.757 177.912 C 331.757 177.600,332.330 177.027,332.642 177.027 C 332.774 177.027,332.883 176.875,332.883 176.689 C 332.883 176.503,332.984 176.351,333.108 176.351 C 333.232 176.351,333.333 176.199,333.333 176.014 C 333.333 175.828,333.442 175.676,333.575 175.676 C 333.886 175.676,334.459 175.103,334.459 174.791 C 334.459 174.658,334.611 174.550,334.797 174.550 C 334.983 174.550,335.135 174.448,335.135 174.324 C 335.135 174.200,335.287 174.099,335.473 174.099 C 335.659 174.099,335.811 173.991,335.811 173.858 C 335.811 173.546,336.384 172.973,336.696 172.973 C 336.828 172.973,336.937 172.864,336.937 172.732 C 336.937 172.420,337.510 171.847,337.822 171.847 C 337.954 171.847,338.063 171.738,338.063 171.606 C 338.063 171.294,338.636 170.721,338.948 170.721 C 339.081 170.721,339.189 170.612,339.189 170.479 C 339.189 170.168,339.762 169.595,340.074 169.595 C 340.207 169.595,340.315 169.443,340.315 169.257 C 340.315 169.071,340.417 168.919,340.541 168.919 C 340.664 168.919,340.766 168.767,340.766 168.581 C 340.766 168.395,340.874 168.243,341.007 168.243 C 341.319 168.243,341.892 167.670,341.892 167.358 C 341.892 167.226,342.044 167.117,342.230 167.117 C 342.416 167.117,342.568 167.016,342.568 166.892 C 342.568 166.768,342.720 166.667,342.905 166.667 C 343.091 166.667,343.243 166.558,343.243 166.425 C 343.243 166.114,343.816 165.541,344.128 165.541 C 344.261 165.541,344.369 165.432,344.369 165.299 C 344.369 164.987,344.942 164.414,345.254 164.414 C 345.387 164.414,345.495 164.311,345.495 164.184 C 345.495 164.057,346.104 163.358,346.847 162.630 C 347.590 161.903,348.198 161.196,348.198 161.059 C 348.198 160.923,348.307 160.811,348.440 160.811 C 348.751 160.811,349.324 160.238,349.324 159.926 C 349.324 159.793,349.431 159.685,349.562 159.685 C 349.873 159.685,355.631 153.927,355.631 153.616 C 355.631 153.485,355.739 153.378,355.872 153.378 C 356.184 153.378,356.757 152.805,356.757 152.494 C 356.757 152.361,356.864 152.252,356.995 152.252 C 357.305 152.252,363.063 146.495,363.063 146.184 C 363.063 146.053,363.215 145.946,363.401 145.946 C 363.592 145.946,363.739 145.744,363.739 145.479 C 363.739 144.981,364.226 144.369,364.624 144.369 C 364.756 144.369,364.865 144.217,364.865 144.032 C 364.865 143.846,364.973 143.694,365.106 143.694 C 365.418 143.694,365.991 143.121,365.991 142.809 C 365.991 142.676,366.100 142.568,366.232 142.568 C 366.544 142.568,367.117 141.995,367.117 141.683 C 367.117 141.550,367.226 141.441,367.358 141.441 C 367.670 141.441,368.243 140.868,368.243 140.557 C 368.243 140.424,368.352 140.315,368.485 140.315 C 368.796 140.315,369.369 139.742,369.369 139.431 C 369.369 139.298,369.521 139.189,369.707 139.189 C 369.893 139.189,370.045 139.081,370.045 138.948 C 370.045 138.636,370.618 138.063,370.930 138.063 C 371.063 138.063,371.171 137.954,371.171 137.822 C 371.171 137.510,371.744 136.937,372.056 136.937 C 372.189 136.937,372.297 136.828,372.297 136.696 C 372.297 136.384,372.870 135.811,373.182 135.811 C 373.315 135.811,373.423 135.659,373.423 135.473 C 373.423 135.287,373.532 135.135,373.665 135.135 C 373.977 135.135,374.550 134.562,374.550 134.250 C 374.550 134.118,374.658 134.009,374.791 134.009 C 375.103 134.009,375.676 133.436,375.676 133.124 C 375.676 132.991,375.784 132.883,375.917 132.883 C 376.229 132.883,376.802 132.310,376.802 131.998 C 376.802 131.865,376.954 131.757,377.140 131.757 C 377.325 131.757,377.477 131.648,377.477 131.515 C 377.477 131.204,378.050 130.631,378.362 130.631 C 378.495 130.631,378.604 130.522,378.604 130.389 C 378.604 130.077,379.177 129.505,379.488 129.505 C 379.621 129.505,379.730 129.396,379.730 129.263 C 379.730 128.951,380.303 128.378,380.615 128.378 C 380.747 128.378,380.856 128.226,380.856 128.041 C 380.856 127.855,380.964 127.703,381.097 127.703 C 381.409 127.703,381.982 127.130,381.982 126.818 C 381.982 126.685,382.091 126.577,382.223 126.577 C 382.535 126.577,383.108 126.004,383.108 125.692 C 383.108 125.559,383.217 125.450,383.349 125.450 C 383.661 125.450,384.234 124.877,384.234 124.566 C 384.234 124.433,384.386 124.324,384.572 124.324 C 384.758 124.324,384.910 124.216,384.910 124.083 C 384.910 123.771,385.483 123.198,385.795 123.198 C 385.927 123.198,386.036 123.090,386.036 122.957 C 386.036 122.645,386.609 122.072,386.921 122.072 C 387.054 122.072,387.162 121.963,387.162 121.831 C 387.162 121.519,387.735 120.946,388.047 120.946 C 388.180 120.946,388.288 120.794,388.288 120.608 C 388.288 120.422,388.397 120.270,388.530 120.270 C 388.841 120.270,389.414 119.697,389.414 119.385 C 389.414 119.253,389.523 119.144,389.656 119.144 C 389.968 119.144,390.541 118.571,390.541 118.259 C 390.541 118.127,390.675 118.018,390.840 118.018 C 391.005 118.018,391.276 117.765,391.441 117.455 C 391.607 117.145,391.878 116.892,392.043 116.892 C 392.207 116.892,392.342 116.783,392.342 116.651 C 392.342 116.339,392.915 115.766,393.227 115.766 C 393.360 115.766,393.468 115.657,393.468 115.524 C 393.468 115.213,394.041 114.640,394.353 114.640 C 394.486 114.640,394.595 114.531,394.595 114.398 C 394.595 114.087,395.168 113.514,395.479 113.514 C 395.612 113.514,395.721 113.372,395.721 113.200 C 395.721 113.027,395.873 112.828,396.059 112.756 C 396.256 112.681,396.396 112.343,396.396 111.944 C 396.396 111.487,396.285 111.261,396.059 111.261 C 395.873 111.261,395.721 111.109,395.721 110.923 C 395.721 110.738,395.612 110.586,395.479 110.586 C 395.168 110.586,394.595 110.013,394.595 109.701 C 394.595 109.568,394.486 109.459,394.353 109.459 C 394.041 109.459,393.468 108.886,393.468 108.575 C 393.468 108.442,393.316 108.333,393.131 108.333 C 392.945 108.333,392.793 108.225,392.793 108.092 C 392.793 107.780,392.220 107.207,391.908 107.207 C 391.775 107.207,391.667 107.099,391.667 106.966 C 391.667 106.654,391.094 106.081,390.782 106.081 C 390.649 106.081,390.541 105.872,390.541 105.616 C 390.541 105.140,388.292 102.703,387.853 102.703 C 387.721 102.703,387.613 102.594,387.613 102.461 C 387.613 102.150,387.040 101.577,386.728 101.577 C 386.595 101.577,386.486 101.475,386.486 101.352 C 386.486 101.046,380.728 95.270,380.423 95.270 C 380.289 95.270,380.180 95.162,380.180 95.029 C 380.180 94.717,379.607 94.144,379.295 94.144 C 379.163 94.144,379.054 94.034,379.054 93.899 C 379.054 93.764,378.193 92.801,377.140 91.760 C 376.087 90.719,375.225 89.765,375.225 89.641 C 375.225 89.516,375.117 89.414,374.985 89.414 C 374.853 89.414,374.410 89.060,374.001 88.626 C 373.592 88.193,373.143 87.838,373.003 87.838 C 372.862 87.838,372.748 87.729,372.748 87.597 C 372.748 87.285,372.175 86.712,371.863 86.712 C 371.730 86.712,371.622 86.597,371.622 86.457 C 371.622 86.317,371.267 85.867,370.833 85.458 C 370.400 85.049,370.045 84.607,370.045 84.475 C 370.045 84.342,369.936 84.234,369.804 84.234 C 369.492 84.234,368.919 83.661,368.919 83.349 C 368.919 83.217,368.810 83.108,368.678 83.108 C 368.366 83.108,367.793 82.535,367.793 82.223 C 367.793 82.091,367.684 81.982,367.551 81.982 C 367.240 81.982,366.667 81.409,366.667 81.097 C 366.667 80.964,366.558 80.856,366.425 80.856 C 366.114 80.856,365.541 80.283,365.541 79.971 C 365.541 79.838,365.389 79.730,365.203 79.730 C 365.017 79.730,364.865 79.628,364.865 79.505 C 364.865 79.381,364.713 79.279,364.527 79.279 C 364.341 79.279,364.189 79.165,364.189 79.024 C 364.189 78.884,363.834 78.435,363.401 78.026 C 362.967 77.617,362.613 77.174,362.613 77.042 C 362.613 76.910,362.504 76.802,362.371 76.802 C 362.059 76.802,361.486 76.229,361.486 75.917 C 361.486 75.784,361.378 75.676,361.245 75.676 C 360.933 75.676,360.360 75.103,360.360 74.791 C 360.360 74.658,360.252 74.550,360.119 74.550 C 359.807 74.550,359.234 73.977,359.234 73.665 C 359.234 73.532,359.126 73.423,358.993 73.423 C 358.681 73.423,358.108 72.850,358.108 72.539 C 358.108 72.406,357.956 72.297,357.770 72.297 C 357.584 72.297,357.432 72.196,357.432 72.072 C 357.432 71.948,357.280 71.847,357.095 71.847 C 356.909 71.847,356.757 71.695,356.757 71.509 C 356.757 71.323,356.655 71.171,356.532 71.171 C 356.408 71.171,356.306 71.019,356.306 70.833 C 356.306 70.648,356.198 70.495,356.065 70.495 C 355.753 70.495,355.180 69.923,355.180 69.611 C 355.180 69.478,355.028 69.369,354.842 69.369 C 354.651 69.369,354.505 69.167,354.505 68.903 C 354.505 68.404,354.017 67.793,353.620 67.793 C 353.487 67.793,353.378 67.684,353.378 67.551 C 353.378 67.240,352.805 66.667,352.494 66.667 C 352.361 66.667,352.252 66.558,352.252 66.425 C 352.252 66.114,351.679 65.541,351.367 65.541 C 351.235 65.541,351.126 65.406,351.126 65.241 C 351.126 65.076,350.873 64.805,350.563 64.640 C 350.253 64.474,350.000 64.203,350.000 64.039 C 350.000 63.874,349.891 63.739,349.759 63.739 C 349.447 63.739,348.874 63.166,348.874 62.854 C 348.874 62.721,348.722 62.613,348.536 62.613 C 348.350 62.613,348.198 62.504,348.198 62.371 C 348.198 62.059,347.625 61.486,347.313 61.486 C 347.181 61.486,347.072 61.378,347.072 61.245 C 347.072 60.933,346.499 60.360,346.187 60.360 C 346.055 60.360,345.946 60.252,345.946 60.119 C 345.946 59.807,345.373 59.234,345.061 59.234 C 344.928 59.234,344.820 59.126,344.820 58.993 C 344.820 58.681,344.247 58.108,343.935 58.108 C 343.802 58.108,343.694 58.000,343.694 57.867 C 343.694 57.555,343.121 56.982,342.809 56.982 C 342.676 56.982,342.568 56.830,342.568 56.644 C 342.568 56.458,342.433 56.306,342.268 56.306 C 342.103 56.306,341.832 56.053,341.667 55.743 C 341.501 55.434,341.230 55.180,341.066 55.180 C 340.901 55.180,340.766 55.072,340.766 54.939 C 340.766 54.627,340.193 54.054,339.881 54.054 C 339.748 54.054,339.640 53.945,339.640 53.813 C 339.640 53.501,339.067 52.928,338.755 52.928 C 338.622 52.928,338.514 52.819,338.514 52.687 C 338.514 52.375,337.941 51.802,337.629 51.802 C 337.496 51.802,337.387 51.693,337.387 51.560 C 337.387 51.249,336.814 50.676,336.503 50.676 C 336.370 50.676,336.261 50.567,336.261 50.434 C 336.261 50.123,335.688 49.550,335.376 49.550 C 335.244 49.550,335.135 49.398,335.135 49.212 C 335.135 49.026,335.000 48.874,334.835 48.874 C 334.670 48.874,334.400 48.620,334.234 48.311 C 334.068 48.001,333.798 47.748,333.633 47.748 C 333.468 47.748,333.333 47.639,333.333 47.506 C 333.333 47.195,332.760 46.622,332.449 46.622 C 332.316 46.622,332.207 46.513,332.207 46.380 C 332.207 46.068,331.634 45.495,331.322 45.495 C 331.190 45.495,331.081 45.387,331.081 45.254 C 331.081 44.942,330.508 44.369,330.196 44.369 C 330.064 44.369,329.955 44.261,329.955 44.128 C 329.955 43.816,329.382 43.243,329.070 43.243 C 328.937 43.243,328.829 43.135,328.829 43.002 C 328.829 42.690,328.256 42.117,327.944 42.117 C 327.811 42.117,327.703 42.008,327.703 41.875 C 327.703 41.559,326.459 40.315,326.143 40.315 C 326.010 40.315,325.901 40.207,325.901 40.074 C 325.901 39.762,325.328 39.189,325.016 39.189 C 324.883 39.189,324.775 39.081,324.775 38.948 C 324.775 38.636,324.202 38.063,323.890 38.063 C 323.757 38.063,323.649 37.954,323.649 37.822 C 323.649 37.510,323.076 36.937,322.764 36.937 C 322.631 36.937,322.523 36.828,322.523 36.696 C 322.523 36.384,321.950 35.811,321.638 35.811 C 321.505 35.811,321.396 35.702,321.396 35.569 C 321.396 35.258,320.823 34.685,320.512 34.685 C 320.379 34.685,320.270 34.533,320.270 34.347 C 320.270 34.161,320.169 34.009,320.045 34.009 C 319.921 34.009,319.820 33.849,319.820 33.652 C 319.820 33.456,317.742 31.224,315.203 28.692 C 312.663 26.160,310.586 23.989,310.586 23.868 C 310.586 23.747,310.477 23.649,310.344 23.649 C 310.032 23.649,309.459 23.076,309.459 22.764 C 309.459 22.631,309.351 22.523,309.218 22.523 C 308.906 22.523,308.333 21.950,308.333 21.638 C 308.333 21.505,308.225 21.396,308.092 21.396 C 307.780 21.396,307.207 20.823,307.207 20.512 C 307.207 20.379,307.099 20.270,306.966 20.270 C 306.654 20.270,306.081 19.697,306.081 19.385 C 306.081 19.253,305.976 19.144,305.848 19.144 C 305.557 19.144,304.279 17.854,304.279 17.560 C 304.279 17.440,304.171 17.342,304.038 17.342 C 303.726 17.342,303.153 16.769,303.153 16.458 C 303.153 16.325,303.045 16.216,302.912 16.216 C 302.600 16.216,302.027 15.643,302.027 15.331 C 302.027 15.199,301.918 15.090,301.786 15.090 C 301.474 15.090,300.901 14.517,300.901 14.205 C 300.901 14.073,300.792 13.964,300.660 13.964 C 300.348 13.964,299.775 13.391,299.775 13.079 C 299.775 12.946,299.647 12.838,299.490 12.838 C 299.334 12.838,299.016 12.584,298.783 12.275 L 298.360 11.712 200.194 11.712 C 113.085 11.712,102.027 11.750,102.027 12.050 M105.963 15.667 C 107.761 17.470,109.338 19.142,109.467 19.383 C 109.595 19.623,109.834 19.820,109.996 19.820 C 110.159 19.820,110.383 20.014,110.495 20.252 C 110.607 20.489,116.019 26.065,122.523 32.643 C 129.026 39.221,136.857 47.161,139.924 50.286 C 148.754 59.283,158.651 69.320,169.818 80.606 C 175.504 86.353,180.213 91.202,180.282 91.382 C 180.351 91.562,180.610 91.762,180.857 91.827 C 181.104 91.892,181.306 92.057,181.306 92.195 C 181.306 92.332,184.315 95.488,187.992 99.207 C 191.669 102.926,195.850 107.167,197.282 108.632 L 199.887 111.295 208.208 102.888 C 241.268 69.486,248.712 61.975,257.108 53.544 C 262.319 48.312,266.648 43.854,266.730 43.637 C 266.811 43.421,267.019 43.243,267.191 43.243 C 267.363 43.243,267.696 42.971,267.930 42.639 C 268.164 42.307,272.334 38.044,277.196 33.167 C 282.058 28.290,286.036 24.204,286.036 24.087 C 286.036 23.970,286.188 23.874,286.374 23.874 C 286.560 23.874,286.712 23.722,286.712 23.536 C 286.712 23.350,286.794 23.198,286.894 23.198 C 287.106 23.198,287.330 22.986,289.721 20.520 C 290.695 19.515,291.528 18.694,291.571 18.694 C 291.730 18.694,293.468 16.795,293.468 16.621 C 293.468 16.522,293.620 16.441,293.806 16.441 C 293.992 16.441,294.144 16.307,294.144 16.142 C 294.144 15.977,294.372 15.715,294.651 15.561 C 294.930 15.406,295.462 14.898,295.833 14.432 C 296.675 13.375,297.457 12.771,297.750 12.952 C 297.897 13.042,297.973 46.846,297.973 111.838 L 297.973 210.586 297.501 210.586 C 297.023 210.586,286.036 199.792,286.036 199.323 C 286.036 199.200,285.909 199.098,285.755 199.097 C 285.600 199.095,285.270 198.837,285.023 198.523 C 284.210 197.493,269.577 182.883,269.358 182.883 C 269.240 182.883,269.144 182.765,269.144 182.620 C 269.144 182.476,266.534 179.732,263.345 176.522 C 260.155 173.313,256.957 170.087,256.239 169.353 C 255.520 168.619,254.834 168.018,254.713 168.018 C 254.592 168.018,254.397 167.765,254.279 167.455 C 254.162 167.145,253.907 166.892,253.715 166.892 C 253.522 166.892,253.291 166.694,253.201 166.452 C 253.111 166.209,247.971 160.906,241.778 154.666 C 235.585 148.426,227.394 140.161,223.576 136.300 C 219.758 132.439,216.538 129.279,216.420 129.279 C 216.303 129.279,216.091 129.026,215.950 128.716 C 215.809 128.407,215.561 128.153,215.400 128.153 C 215.238 128.153,214.997 127.950,214.864 127.701 C 214.731 127.452,211.850 124.477,208.462 121.089 C 205.075 117.701,202.186 114.712,202.044 114.447 C 201.902 114.181,201.635 113.964,201.450 113.964 C 201.266 113.964,201.024 113.724,200.913 113.432 C 200.408 112.103,199.991 112.378,195.133 117.235 C 192.607 119.761,190.541 121.919,190.541 122.031 C 190.541 122.143,190.275 122.426,189.950 122.660 C 189.625 122.894,189.245 123.224,189.105 123.392 C 188.966 123.561,186.647 125.923,183.953 128.642 C 181.258 131.360,179.054 133.680,179.054 133.797 C 179.054 133.914,178.945 134.009,178.813 134.009 C 178.680 134.009,178.427 134.154,178.250 134.331 C 178.073 134.508,177.928 134.761,177.928 134.894 C 177.928 135.027,177.819 135.135,177.687 135.135 C 177.444 135.135,176.802 135.683,176.802 135.890 C 176.802 136.069,175.432 137.387,175.246 137.387 C 175.153 137.387,174.941 137.641,174.775 137.950 C 174.609 138.260,174.339 138.514,174.174 138.514 C 174.009 138.514,173.874 138.622,173.874 138.755 C 173.874 139.067,173.301 139.640,172.989 139.640 C 172.856 139.640,172.748 139.775,172.748 139.939 C 172.748 140.104,172.494 140.375,172.185 140.541 C 171.875 140.706,171.622 140.914,171.622 141.002 C 171.622 141.234,168.000 144.820,167.765 144.820 C 167.657 144.820,167.568 144.947,167.568 145.103 C 167.568 145.258,164.628 148.324,161.036 151.914 C 157.444 155.505,154.505 158.554,154.505 158.690 C 154.505 158.826,154.251 159.052,153.941 159.193 C 153.632 159.334,153.378 159.588,153.378 159.756 C 153.378 159.925,153.125 160.178,152.815 160.319 C 152.506 160.460,152.252 160.667,152.252 160.778 C 152.252 160.890,147.590 165.665,141.892 171.389 C 136.194 177.114,131.529 181.864,131.527 181.946 C 131.524 182.028,128.585 185.028,124.995 188.614 C 121.405 192.200,118.468 195.182,118.468 195.243 C 118.468 195.303,115.937 197.893,112.844 200.998 C 109.750 204.103,106.207 207.683,104.970 208.953 C 102.549 211.439,102.160 211.645,101.943 210.557 C 101.762 209.653,101.763 13.569,101.944 12.894 C 102.181 12.011,102.618 12.312,105.963 15.667 " stroke="none" fill="#ff0008" fill-rule="evenodd"></path><path id="path2" d="M102.415 13.201 C 102.198 13.417,102.211 210.172,102.428 210.513 C 102.536 210.683,105.446 207.868,110.577 202.630 C 114.967 198.148,123.631 189.321,129.831 183.014 C 136.031 176.706,141.509 171.128,142.005 170.617 C 142.500 170.106,145.830 166.728,149.405 163.110 C 152.980 159.492,155.830 156.532,155.739 156.532 C 155.528 156.532,142.117 170.049,142.117 170.261 C 142.117 170.348,141.864 170.555,141.554 170.721 C 141.244 170.886,140.991 171.086,140.991 171.164 C 140.991 171.242,138.358 173.936,135.140 177.151 C 131.922 180.365,129.234 183.157,129.167 183.355 C 129.100 183.553,128.794 183.830,128.487 183.970 C 128.179 184.110,127.928 184.381,127.928 184.573 C 127.928 184.764,127.675 185.017,127.365 185.135 C 127.055 185.253,126.802 185.448,126.802 185.569 C 126.802 185.690,124.952 187.657,122.691 189.940 C 120.431 192.223,114.958 197.774,110.529 202.276 L 102.477 210.460 102.477 111.851 L 102.477 13.243 107.101 17.914 C 109.643 20.483,111.762 22.546,111.809 22.498 C 111.857 22.449,109.799 20.301,107.237 17.724 C 104.674 15.146,102.505 13.111,102.415 13.201 M291.963 18.884 C 288.968 21.938,281.443 29.552,275.240 35.805 C 269.038 42.057,263.964 47.243,263.964 47.330 C 263.964 47.467,272.935 38.465,291.872 19.324 C 294.899 16.264,297.460 13.812,297.562 13.876 C 297.664 13.939,297.748 13.833,297.748 13.639 C 297.748 13.017,297.491 13.250,291.963 18.884 M112.395 23.118 C 112.404 23.346,115.090 26.055,115.090 25.836 C 115.090 25.754,114.482 25.066,113.739 24.306 C 112.995 23.547,112.391 23.012,112.395 23.118 M115.315 26.057 C 115.315 26.180,115.518 26.465,115.766 26.689 C 116.014 26.913,116.216 27.046,116.216 26.984 C 116.216 26.922,116.014 26.637,115.766 26.351 C 115.518 26.066,115.315 25.933,115.315 26.057 M119.820 30.770 C 119.820 31.061,121.130 32.324,121.278 32.175 C 121.339 32.114,121.036 31.721,120.605 31.303 C 120.173 30.885,119.820 30.645,119.820 30.770 M121.622 32.537 C 121.622 32.694,136.863 48.240,149.235 60.703 C 152.221 63.711,154.728 66.338,154.806 66.540 C 154.884 66.743,155.252 67.082,155.625 67.294 C 155.998 67.507,156.304 67.777,156.305 67.895 C 156.306 68.012,158.982 70.800,162.252 74.088 C 165.522 77.377,171.147 83.045,174.752 86.684 C 178.357 90.323,181.306 93.223,181.306 93.128 C 181.306 93.033,178.747 90.368,175.619 87.205 C 172.492 84.042,169.578 81.083,169.144 80.629 C 168.711 80.176,165.315 76.722,161.598 72.954 C 157.881 69.186,150.077 61.254,144.256 55.326 C 128.077 38.852,121.622 32.352,121.622 32.537 M262.318 48.848 C 261.613 49.577,261.036 50.247,261.036 50.336 C 261.036 50.425,261.644 49.877,262.387 49.117 C 263.601 47.877,263.886 47.523,263.670 47.523 C 263.632 47.523,263.023 48.119,262.318 48.848 M259.741 51.453 C 259.215 51.979,258.784 52.480,258.784 52.566 C 258.784 52.653,259.254 52.260,259.829 51.694 C 260.403 51.127,260.834 50.626,260.786 50.580 C 260.738 50.535,260.267 50.928,259.741 51.453 M256.025 55.164 C 254.693 56.496,253.604 57.663,253.604 57.757 C 253.604 57.851,254.735 56.803,256.119 55.428 C 257.502 54.053,258.591 52.886,258.540 52.835 C 258.488 52.784,257.356 53.832,256.025 55.164 M252.486 58.743 C 251.884 59.387,221.003 90.639,214.809 96.873 C 214.096 97.590,213.514 98.248,213.514 98.335 C 213.514 98.516,216.151 96.135,216.191 95.919 C 216.205 95.843,224.299 87.651,234.178 77.716 C 244.057 67.780,252.181 59.532,252.231 59.386 C 252.282 59.241,252.581 58.898,252.897 58.624 C 253.213 58.350,253.424 58.079,253.366 58.020 C 253.308 57.962,252.912 58.288,252.486 58.743 M183.893 95.897 C 186.251 98.306,186.486 98.528,186.486 98.344 C 186.486 98.236,182.862 94.615,182.063 93.926 C 181.709 93.620,182.532 94.507,183.893 95.897 M206.757 105.089 C 203.226 108.697,200.186 111.661,200.000 111.677 C 199.814 111.692,196.783 108.767,193.263 105.176 C 189.744 101.585,186.831 98.679,186.791 98.720 C 186.750 98.760,189.528 101.661,192.964 105.167 C 196.400 108.672,199.241 111.663,199.277 111.813 C 199.313 111.964,196.846 114.612,193.793 117.699 C 190.741 120.785,185.498 126.098,182.141 129.505 C 178.785 132.911,173.041 138.739,169.377 142.455 C 165.714 146.171,162.570 149.414,162.393 149.662 C 161.930 150.307,163.506 148.835,165.512 146.750 C 166.457 145.768,169.611 142.556,172.523 139.611 C 175.434 136.667,180.146 131.885,182.995 128.985 C 193.810 117.978,199.828 111.937,199.979 111.937 C 200.066 111.937,200.638 112.434,201.251 113.041 C 202.282 114.063,217.586 129.563,218.063 130.068 C 218.565 130.600,221.048 133.109,229.791 141.920 C 234.898 147.066,246.323 158.616,255.180 167.586 C 264.037 176.556,276.366 189.013,282.578 195.269 C 288.789 201.526,294.144 206.974,294.478 207.376 C 294.812 207.779,295.181 208.108,295.298 208.108 C 295.679 208.108,291.646 203.989,264.835 176.992 C 255.343 167.435,247.950 159.968,228.716 140.517 C 222.770 134.503,214.029 125.671,209.291 120.889 C 204.552 116.108,200.676 112.027,200.676 111.821 C 200.676 111.615,202.981 109.133,205.800 106.304 C 212.775 99.304,213.390 98.670,213.275 98.595 C 213.220 98.559,210.287 101.482,206.757 105.089 M156.777 155.294 C 155.748 156.342,155.596 156.691,156.557 155.800 C 157.196 155.207,157.993 154.279,157.861 154.281 C 157.811 154.282,157.323 154.738,156.777 155.294 M296.396 209.347 C 296.943 209.904,297.481 210.360,297.590 210.360 C 297.700 210.360,297.320 209.904,296.746 209.347 C 296.173 208.789,295.636 208.333,295.553 208.333 C 295.470 208.333,295.849 208.789,296.396 209.347 " stroke="none" fill="#fcb4bc" fill-rule="evenodd"></path><path id="path3" d="M102.240 12.982 C 102.106 13.334,102.048 50.269,102.083 111.896 L 102.140 210.248 102.196 111.781 C 102.227 57.625,102.336 13.263,102.439 13.200 C 102.541 13.136,104.333 14.801,106.420 16.900 C 108.508 18.998,110.272 20.659,110.341 20.590 C 110.410 20.521,110.260 20.294,110.008 20.086 C 109.756 19.878,107.953 18.068,106.002 16.064 C 102.586 12.556,102.446 12.441,102.240 12.982 M291.774 18.749 C 267.612 43.171,260.903 50.000,261.067 50.000 C 261.135 50.000,262.954 48.218,265.111 46.040 C 267.267 43.862,272.934 38.144,277.703 33.334 C 282.472 28.524,288.886 22.046,291.957 18.938 C 295.028 15.831,297.587 13.288,297.644 13.288 C 297.701 13.288,297.773 57.604,297.804 111.768 L 297.861 210.248 297.861 111.730 C 297.860 44.992,297.786 13.189,297.631 13.137 C 297.504 13.095,294.869 15.620,291.774 18.749 M111.261 21.734 C 111.261 21.903,113.040 23.649,113.212 23.649 C 113.345 23.649,111.455 21.627,111.318 21.623 C 111.287 21.622,111.261 21.672,111.261 21.734 M114.805 25.450 C 115.017 25.698,115.268 25.901,115.363 25.901 C 115.458 25.901,115.363 25.698,115.150 25.450 C 114.938 25.203,114.687 25.000,114.592 25.000 C 114.497 25.000,114.592 25.203,114.805 25.450 M117.259 27.916 C 118.227 28.900,119.060 29.664,119.111 29.613 C 119.219 29.504,115.865 26.126,115.648 26.126 C 115.567 26.126,116.292 26.931,117.259 27.916 M119.369 29.924 C 119.369 30.009,122.587 33.336,126.520 37.316 C 130.453 41.296,138.434 49.401,144.256 55.328 C 150.077 61.255,157.836 69.144,161.497 72.860 C 165.158 76.577,170.741 82.252,173.905 85.473 C 184.315 96.073,186.099 97.864,185.911 97.532 C 185.719 97.190,182.977 94.366,174.775 86.061 C 172.111 83.364,166.905 78.074,163.204 74.306 C 159.504 70.538,153.730 64.668,150.373 61.261 C 147.016 57.855,141.885 52.635,138.969 49.662 C 127.345 37.807,119.369 29.775,119.369 29.924 M259.685 51.239 C 259.138 51.796,258.744 52.252,258.809 52.252 C 258.875 52.252,259.404 51.796,259.986 51.239 C 260.568 50.681,260.962 50.225,260.862 50.225 C 260.761 50.225,260.232 50.681,259.685 51.239 M255.968 54.955 C 254.610 56.318,253.554 57.432,253.622 57.432 C 253.690 57.432,254.871 56.318,256.246 54.955 C 257.621 53.592,258.677 52.477,258.592 52.477 C 258.507 52.477,257.327 53.592,255.968 54.955 M248.229 62.784 C 241.049 70.084,217.299 94.134,207.946 103.576 L 200.014 111.584 199.303 110.916 C 198.913 110.548,197.820 109.462,196.875 108.502 C 195.931 107.543,195.076 106.757,194.977 106.757 C 194.877 106.757,195.899 107.872,197.248 109.234 C 199.496 111.506,200.287 112.060,200.488 111.504 C 200.576 111.261,217.563 94.042,243.557 67.847 C 249.118 62.243,253.578 57.659,253.467 57.660 C 253.356 57.662,250.999 59.967,248.229 62.784 M186.285 97.915 C 186.403 98.247,194.615 106.586,194.720 106.481 C 194.765 106.436,192.866 104.434,190.499 102.032 C 188.132 99.630,186.236 97.777,186.285 97.915 M199.303 112.371 C 198.616 113.130,198.583 113.397,199.253 112.775 L 199.927 112.148 208.614 120.883 C 213.392 125.687,218.982 131.340,221.038 133.446 C 223.093 135.552,224.775 137.172,224.775 137.047 C 224.775 136.921,223.837 135.890,222.691 134.755 C 220.927 133.007,218.884 130.938,218.063 130.068 C 217.586 129.563,202.282 114.063,201.251 113.041 C 200.040 111.841,199.844 111.774,199.303 112.371 M197.501 114.270 C 197.079 114.686,196.483 115.320,196.176 115.678 C 195.869 116.036,196.250 115.724,197.021 114.985 C 197.792 114.245,198.423 113.612,198.423 113.577 C 198.423 113.410,198.207 113.573,197.501 114.270 M191.764 120.076 C 189.790 122.076,185.864 126.047,183.038 128.901 C 180.212 131.755,177.790 134.300,177.655 134.556 C 177.520 134.813,177.844 134.566,178.376 134.009 C 178.907 133.452,181.736 130.563,184.662 127.590 C 193.007 119.111,195.594 116.441,195.468 116.441 C 195.404 116.441,193.737 118.077,191.764 120.076 M170.698 141.473 C 167.614 144.588,165.090 147.205,165.090 147.290 C 165.090 147.398,174.851 137.711,176.558 135.910 C 176.609 135.855,176.574 135.811,176.479 135.811 C 176.384 135.811,173.783 138.359,170.698 141.473 M225.000 137.254 C 225.000 137.356,228.218 140.680,232.151 144.641 C 252.347 164.979,256.286 168.919,256.429 168.919 C 256.515 168.919,252.682 164.992,247.913 160.191 C 243.143 155.391,236.037 148.225,232.121 144.266 C 228.204 140.308,225.000 137.152,225.000 137.254 M162.056 150.229 C 160.573 151.714,159.437 152.928,159.531 152.928 C 159.714 152.928,164.865 147.814,164.865 147.632 C 164.865 147.427,164.749 147.534,162.056 150.229 M158.026 154.270 C 156.846 155.532,156.590 156.095,157.714 154.956 C 159.301 153.349,159.471 153.153,159.274 153.153 C 159.162 153.153,158.601 153.656,158.026 154.270 M156.250 156.073 C 155.677 156.631,155.766 156.858,156.346 156.317 C 156.616 156.066,156.793 155.822,156.740 155.775 C 156.687 155.727,156.467 155.862,156.250 156.073 M153.441 158.963 C 152.919 159.533,152.535 160.042,152.588 160.095 C 152.708 160.215,154.505 158.309,154.505 158.062 C 154.505 157.808,154.493 157.817,153.441 158.963 M151.994 160.329 C 151.950 160.451,149.482 163.020,146.509 166.038 C 138.932 173.730,120.065 192.944,110.577 202.630 C 105.446 207.868,102.536 210.683,102.428 210.513 C 102.316 210.337,102.258 210.381,102.256 210.642 C 102.249 211.393,102.826 210.970,105.059 208.587 C 107.933 205.522,115.742 197.572,135.811 177.281 C 151.391 161.528,152.421 160.454,152.184 160.217 C 152.123 160.156,152.038 160.207,151.994 160.329 M256.532 169.305 C 256.532 169.501,257.432 170.123,257.545 170.004 C 257.583 169.965,257.370 169.750,257.073 169.528 C 256.775 169.305,256.532 169.205,256.532 169.305 M257.846 170.514 C 257.986 170.710,264.006 176.837,271.224 184.128 C 278.441 191.420,286.499 199.564,289.130 202.225 C 291.761 204.886,293.953 207.019,294.002 206.966 C 294.051 206.913,285.879 198.609,275.841 188.514 C 265.804 178.418,257.706 170.318,257.846 170.514 M294.144 207.252 C 294.144 207.296,294.926 208.089,295.881 209.015 C 297.170 210.264,297.329 210.378,296.500 209.459 C 295.456 208.302,294.144 207.073,294.144 207.252 " stroke="none" fill="#fc6c74" fill-rule="evenodd"></path><path id="path4" d="M101.944 12.894 C 101.763 13.569,101.762 209.653,101.943 210.557 C 102.160 211.645,102.549 211.439,104.970 208.953 C 106.207 207.683,109.768 204.086,112.883 200.959 C 115.998 197.832,118.498 195.225,118.439 195.166 C 118.339 195.066,109.589 203.809,104.754 208.840 C 102.393 211.296,102.364 211.313,102.168 210.332 C 101.925 209.120,102.004 13.605,102.247 12.965 C 102.367 12.647,102.379 12.387,102.273 12.387 C 102.167 12.387,102.018 12.615,101.944 12.894 M102.733 12.576 C 102.778 12.702,104.513 14.531,106.588 16.639 C 108.663 18.748,110.360 20.516,110.360 20.569 C 110.360 20.622,112.869 23.191,115.935 26.277 C 122.843 33.231,142.949 53.686,146.393 57.264 C 147.793 58.719,149.033 59.910,149.148 59.910 C 149.263 59.910,148.487 59.023,147.424 57.939 C 136.783 47.085,132.762 43.000,122.523 32.643 C 116.019 26.065,110.607 20.489,110.495 20.252 C 110.383 20.014,110.159 19.820,109.996 19.820 C 109.834 19.820,109.595 19.623,109.467 19.383 C 109.202 18.888,102.607 12.220,102.733 12.576 M296.959 13.253 C 296.712 13.472,296.206 14.001,295.836 14.427 C 295.448 14.874,295.654 14.738,296.321 14.106 C 297.060 13.406,297.581 13.073,297.761 13.184 C 297.943 13.296,297.986 13.266,297.882 13.098 C 297.667 12.750,297.494 12.779,296.959 13.253 M290.090 20.072 C 287.795 22.513,287.717 22.643,289.696 20.726 C 290.780 19.676,291.667 18.789,291.667 18.755 C 291.667 18.511,291.155 18.938,290.090 20.072 M286.036 24.087 C 286.036 24.204,282.058 28.290,277.196 33.167 C 272.334 38.044,268.164 42.307,267.930 42.639 C 267.696 42.971,267.363 43.243,267.191 43.243 C 267.019 43.243,266.811 43.421,266.729 43.637 C 266.647 43.854,262.142 48.491,256.718 53.941 C 243.141 67.585,232.654 78.164,214.996 96.027 L 199.925 111.274 199.289 110.665 C 198.940 110.330,198.617 110.099,198.573 110.152 C 198.529 110.204,198.840 110.543,199.265 110.905 L 200.036 111.562 207.957 103.565 C 212.314 99.167,222.061 89.302,229.617 81.643 C 245.529 65.516,262.680 48.176,276.461 34.286 C 285.969 24.703,286.750 23.874,286.272 23.874 C 286.142 23.874,286.036 23.970,286.036 24.087 M152.984 63.908 C 155.055 65.983,157.826 68.795,159.142 70.158 C 160.457 71.520,161.451 72.483,161.352 72.297 C 160.995 71.630,149.697 60.135,149.398 60.135 C 149.298 60.135,150.912 61.833,152.984 63.908 M161.712 72.709 C 161.712 72.803,162.168 73.327,162.725 73.874 C 163.283 74.421,163.739 74.788,163.739 74.689 C 163.739 74.590,163.283 74.066,162.725 73.524 C 162.168 72.983,161.712 72.616,161.712 72.709 M163.964 74.928 C 163.964 75.021,165.307 76.456,166.948 78.117 C 183.230 94.597,194.619 106.207,194.829 106.539 C 195.002 106.812,195.039 106.815,195.042 106.554 C 195.043 106.380,191.954 103.132,188.176 99.335 C 184.398 95.539,181.306 92.323,181.306 92.189 C 181.306 92.054,181.104 91.892,180.857 91.827 C 180.610 91.762,180.352 91.566,180.285 91.390 C 180.136 91.000,163.964 74.689,163.964 74.928 M195.233 116.849 C 192.703 119.412,188.034 124.142,184.857 127.360 C 181.681 130.578,179.122 133.251,179.171 133.301 C 179.248 133.377,188.358 124.288,189.105 123.391 C 189.245 123.223,189.625 122.894,189.950 122.660 C 190.275 122.426,190.541 122.143,190.541 122.031 C 190.541 121.919,192.607 119.761,195.133 117.235 C 199.991 112.378,200.408 112.103,200.913 113.432 C 201.024 113.724,201.221 113.964,201.351 113.964 C 201.687 113.964,200.969 112.935,200.351 112.529 C 199.844 112.197,199.728 112.295,195.233 116.849 M202.071 114.503 C 202.198 114.738,205.075 117.701,208.462 121.089 C 211.850 124.477,214.731 127.452,214.864 127.701 C 214.997 127.950,215.238 128.153,215.400 128.153 C 215.561 128.153,215.809 128.407,215.950 128.716 C 216.091 129.026,216.324 129.279,216.468 129.279 C 216.612 129.279,216.859 129.456,217.018 129.673 C 217.176 129.890,217.359 130.013,217.424 129.948 C 217.490 129.883,214.010 126.285,209.691 121.953 C 205.372 117.621,201.943 114.268,202.071 114.503 M218.514 131.159 C 219.097 131.735,219.643 132.207,219.728 132.207 C 219.962 132.207,218.421 130.645,217.905 130.359 C 217.658 130.222,217.932 130.582,218.514 131.159 M220.946 133.538 C 220.946 133.743,222.497 135.247,222.577 135.120 C 222.611 135.066,222.258 134.653,221.793 134.201 C 221.327 133.749,220.946 133.451,220.946 133.538 M176.445 135.975 C 175.789 136.685,175.285 137.297,175.324 137.336 C 175.408 137.420,176.802 136.055,176.802 135.890 C 176.802 135.683,177.444 135.135,177.687 135.135 C 177.819 135.135,177.928 135.034,177.928 134.910 C 177.928 134.478,177.628 134.693,176.445 135.975 M173.312 139.188 C 173.087 139.436,172.977 139.640,173.067 139.640 C 173.304 139.640,173.946 138.961,173.824 138.839 C 173.767 138.782,173.537 138.939,173.312 139.188 M228.378 140.970 C 228.378 141.176,229.929 142.679,230.010 142.552 C 230.044 142.499,229.691 142.085,229.225 141.634 C 228.759 141.182,228.378 140.883,228.378 140.970 M169.588 142.912 C 168.544 143.961,167.752 144.820,167.827 144.820 C 168.012 144.820,171.651 141.171,171.559 141.078 C 171.518 141.038,170.631 141.863,169.588 142.912 M230.428 143.187 C 230.594 143.404,235.749 148.627,241.883 154.793 C 248.017 160.960,253.110 166.205,253.200 166.449 C 253.290 166.692,253.522 166.892,253.715 166.892 C 253.907 166.892,254.162 167.145,254.279 167.455 C 254.397 167.765,254.592 168.018,254.713 168.018 C 254.834 168.018,255.520 168.619,256.239 169.353 C 256.957 170.087,260.155 173.313,263.345 176.522 C 266.534 179.732,269.144 182.476,269.144 182.620 C 269.144 182.765,269.241 182.883,269.359 182.883 C 269.476 182.883,272.878 186.187,276.918 190.225 C 280.958 194.264,284.299 197.533,284.342 197.489 C 284.385 197.446,278.398 191.338,271.039 183.916 C 263.679 176.494,257.658 170.354,257.658 170.272 C 257.658 170.189,257.404 169.986,257.095 169.820 C 256.785 169.654,256.532 169.440,256.532 169.344 C 256.532 169.249,252.655 165.272,247.917 160.508 C 243.178 155.744,237.283 149.809,234.816 147.319 C 230.665 143.130,229.652 142.176,230.428 143.187 M160.971 151.655 C 157.405 155.266,154.093 158.651,153.612 159.178 C 153.131 159.704,152.629 160.135,152.495 160.135 C 152.362 160.135,152.252 160.256,152.252 160.405 C 152.252 160.553,150.124 162.811,147.523 165.423 C 144.921 168.034,142.793 170.234,142.793 170.311 C 142.793 170.388,144.921 168.324,147.523 165.723 C 150.124 163.123,152.252 160.901,152.252 160.786 C 152.252 160.670,152.506 160.460,152.815 160.319 C 153.125 160.178,153.378 159.925,153.378 159.756 C 153.378 159.588,153.632 159.334,153.941 159.193 C 154.251 159.052,154.505 158.827,154.505 158.693 C 154.505 158.559,157.464 155.488,161.082 151.868 C 164.700 148.249,167.614 145.243,167.557 145.189 C 167.501 145.134,164.537 148.044,160.971 151.655 M141.498 171.498 C 140.971 172.024,140.541 172.525,140.541 172.611 C 140.541 172.698,141.011 172.305,141.585 171.739 C 142.160 171.172,142.591 170.671,142.543 170.625 C 142.494 170.580,142.024 170.973,141.498 171.498 M139.569 173.449 C 139.221 173.807,139.018 174.097,139.119 174.095 C 139.347 174.090,140.408 172.988,140.289 172.879 C 140.242 172.835,139.918 173.092,139.569 173.449 M138.228 174.775 C 138.016 175.023,137.920 175.225,138.015 175.225 C 138.110 175.225,138.362 175.023,138.574 174.775 C 138.786 174.527,138.882 174.324,138.787 174.324 C 138.691 174.324,138.440 174.527,138.228 174.775 M137.102 175.901 C 136.890 176.149,136.794 176.351,136.889 176.351 C 136.984 176.351,137.236 176.149,137.448 175.901 C 137.660 175.653,137.756 175.450,137.660 175.450 C 137.565 175.450,137.314 175.653,137.102 175.901 M135.271 177.713 C 134.664 178.332,134.208 178.873,134.257 178.917 C 134.307 178.961,134.885 178.452,135.543 177.787 C 136.200 177.121,136.656 176.579,136.556 176.582 C 136.456 176.586,135.878 177.094,135.271 177.713 M133.502 179.496 C 132.929 180.055,133.018 180.282,133.598 179.741 C 133.868 179.490,134.046 179.245,133.993 179.198 C 133.940 179.151,133.719 179.285,133.502 179.496 M132.137 180.882 C 131.788 181.239,131.586 181.530,131.686 181.528 C 131.915 181.523,132.976 180.421,132.857 180.311 C 132.809 180.268,132.485 180.524,132.137 180.882 M124.884 188.295 C 121.303 191.884,118.470 194.819,118.589 194.819 C 118.868 194.818,131.639 182.014,131.500 181.876 C 131.443 181.818,128.466 184.707,124.884 188.295 M284.459 197.849 C 284.459 198.074,285.542 199.099,285.780 199.099 C 285.921 199.099,286.036 199.200,286.036 199.323 C 286.036 199.591,296.947 210.586,297.213 210.586 C 297.408 210.586,296.871 210.031,289.338 202.463 C 284.941 198.044,284.459 197.589,284.459 197.849 " stroke="none" fill="#fc242c" fill-rule="evenodd"></path></g></svg>